<?xml version="1.0" encoding="UTF-8" standalone="no"?>
<svg
   xmlns:dc="http://purl.org/dc/elements/1.1/"
   xmlns:cc="http://creativecommons.org/ns#"
   xmlns:rdf="http://www.w3.org/1999/02/22-rdf-syntax-ns#"
   xmlns:svg="http://www.w3.org/2000/svg"
   xmlns="http://www.w3.org/2000/svg"
   xmlns:sodipodi="http://sodipodi.sourceforge.net/DTD/sodipodi-0.dtd"
   xmlns:inkscape="http://www.inkscape.org/namespaces/inkscape"
   version="1.1"
   width="450.7mm"
   height="334.7mm"
   viewBox=" 0 0 1596.969817 1185.945857"
   id="svg26"
   sodipodi:docname="caseplans-2.svg"
   inkscape:version="0.92.2 5c3e80d, 2017-08-06">
  <metadata
     id="metadata32">
    <rdf:RDF>
      <cc:Work
         rdf:about="">
        <dc:format>image/svg+xml</dc:format>
        <dc:type
           rdf:resource="http://purl.org/dc/dcmitype/StillImage" />
        <dc:title></dc:title>
      </cc:Work>
    </rdf:RDF>
  </metadata>
  <defs
     id="defs30" />
  <sodipodi:namedview
     pagecolor="#ffffff"
     bordercolor="#666666"
     borderopacity="1"
     objecttolerance="10"
     gridtolerance="10"
     guidetolerance="10"
     inkscape:pageopacity="0"
     inkscape:pageshadow="2"
     inkscape:window-width="1421"
     inkscape:window-height="808"
     id="namedview28"
     showgrid="false"
     inkscape:measure-start="558.803,404.695"
     inkscape:measure-end="560.141,29.4811"
     inkscape:zoom="0.37312019"
     inkscape:cx="579.12838"
     inkscape:cy="570.49422"
     inkscape:window-x="0"
     inkscape:window-y="0"
     inkscape:window-maximized="0"
     inkscape:current-layer="svg26" />
  <!-- Front-->
  <g
     transform="translate(22.5000185, 22.5000185) "
     id="g4">
    <polygon
       style="stroke:#000000; fill:none; stroke-width:0.90000074"
       points="0, 0 66.4370625, 0 66.4370625, 11.1614265 132.874125, 11.1614265 132.874125, 0 171.85053499999998, 0 171.85053499999998, 11.1614265 238.2875975, 11.1614265 238.2875975, 0 304.72466, 0 304.72466, 39.685072 293.56323349999997, 39.685072 293.56323349999997, 79.370144 304.72466, 79.370144 304.72466, 119.055216 293.56323349999997, 119.055216 293.56323349999997, 158.740288 304.72466, 158.740288 304.72466, 198.42536 238.2875975, 198.42536 238.2875975, 187.2639335 171.85053499999998, 187.2639335 171.85053499999998, 198.42536 132.874125, 198.42536 132.874125, 187.2639335 66.4370625, 187.2639335 66.4370625, 198.42536 0, 198.42535999999998 0, 158.740288 11.1614265, 158.740288 11.1614265, 119.055216 0, 119.055216 0, 79.370144 11.1614265, 79.370144 11.1614265, 39.685072 0, 39.685072 "
       id="polygon2" />
  </g>
  <!-- Back-->
  <g
     transform="translate(327.2246785, 22.5000185) "
     id="g8">
    <polygon
       style="stroke:#000000; fill:none; stroke-width:0.90000074"
       points="0, 0 66.4370625, 0 66.4370625, 11.1614265 132.874125, 11.1614265 132.874125, 0 171.85053499999998, 0 171.85053499999998, 11.1614265 238.2875975, 11.1614265 238.2875975, 0 304.72466, 0 304.72466, 39.685072 293.56323349999997, 39.685072 293.56323349999997, 79.370144 304.72466, 79.370144 304.72466, 119.055216 293.56323349999997, 119.055216 293.56323349999997, 158.740288 304.72466, 158.740288 304.72466, 198.42536 238.2875975, 198.42536 238.2875975, 187.2639335 171.85053499999998, 187.2639335 171.85053499999998, 198.42536 132.874125, 198.42536 132.874125, 187.2639335 66.4370625, 187.2639335 66.4370625, 198.42536 0, 198.42535999999998 0, 158.740288 11.1614265, 158.740288 11.1614265, 119.055216 0, 119.055216 0, 79.370144 11.1614265, 79.370144 11.1614265, 39.685072 0, 39.685072 "
       id="polygon6" />
  </g>
  <!-- Left-->
  <g
     transform="translate(631.9493385, 22.5000185) "
     id="g12">
    <polygon
       style="stroke:#000000; fill:none; stroke-width:0.90000074"
       points="11.1614265, 0 50.4921675, 0 50.4921675, 11.1614265 100.984335, 11.1614265 100.984335, 0 139.960745, 0 139.960745, 11.1614265 178.93715500000002, 11.1614265 178.93715500000002, 0 217.913565, 0 217.913565, 11.1614265 256.889975, 11.1614265 256.889975, 0 295.866385, 0 295.866385, 11.1614265 334.842795, 11.1614265 334.842795, 0 373.819205, 0 373.819205, 11.1614265 412.795615, 11.1614265 412.795615, 0 451.772025, 0 451.772025, 11.1614265 490.748435, 11.1614265 490.748435, 0 529.7248450000001, 0 529.7248450000001, 11.1614265 568.7012550000001, 11.1614265 568.7012550000001, 0 607.677665, 0 607.677665, 11.1614265 646.654075, 11.1614265 646.654075, 0 685.630485, 0 685.630485, 11.1614265 724.606895, 11.1614265 724.606895, 0 763.583305, 0 763.583305, 11.1614265 802.559715, 11.1614265 802.559715, 0 841.536125, 0 841.536125, 11.1614265 892.0282925, 11.1614265 892.0282925, 0 931.3590335, 0 931.3590335, 39.685072 942.52046, 39.685072 942.52046, 79.370144 931.3590335, 79.370144 931.3590335, 119.055216 942.52046, 119.055216 942.52046, 158.740288 931.3590335, 158.740288 931.3590335, 198.42536 892.0282925, 198.42536 892.0282925, 187.2639335 841.536125, 187.2639335 841.536125, 198.42536 802.559715, 198.42536 802.559715, 187.2639335 763.583305, 187.2639335 763.583305, 198.42536 724.606895, 198.42536 724.606895, 187.2639335 685.630485, 187.2639335 685.630485, 198.42536 646.654075, 198.42536 646.654075, 187.2639335 607.677665, 187.2639335 607.677665, 198.42536 568.7012550000001, 198.42536 568.7012550000001, 187.2639335 529.7248450000001, 187.2639335 529.7248450000001, 198.42536 490.748435, 198.42536 490.748435, 187.2639335 451.772025, 187.2639335 451.772025, 198.42536 412.795615, 198.42536 412.795615, 187.2639335 373.819205, 187.2639335 373.819205, 198.42536 334.842795, 198.42536 334.842795, 187.2639335 295.866385, 187.2639335 295.866385, 198.42536 256.889975, 198.42536 256.889975, 187.2639335 217.913565, 187.2639335 217.913565, 198.42536 178.93715500000002, 198.42536 178.93715500000002, 187.2639335 139.960745, 187.2639335 139.960745, 198.42536 100.984335, 198.42536 100.984335, 187.2639335 50.4921675, 187.2639335 50.4921675, 198.42536 11.1614265, 198.42535999999998 11.1614265, 158.740288 0, 158.740288 0, 119.055216 11.1614265, 119.055216 11.1614265, 79.370144 0, 79.370144 0, 39.685072 11.1614265, 39.685072 "
       id="polygon10" />
  </g>
  <!-- Right-->
  <g
     transform="translate(631.9493385, 220.9253785) "
     id="g16">
    <polygon
       style="stroke:#000000; fill:none; stroke-width:0.90000074"
       points="11.1614265, 0 50.4921675, 0 50.4921675, 11.1614265 100.984335, 11.1614265 100.984335, 0 139.960745, 0 139.960745, 11.1614265 178.93715500000002, 11.1614265 178.93715500000002, 0 217.913565, 0 217.913565, 11.1614265 256.889975, 11.1614265 256.889975, 0 295.866385, 0 295.866385, 11.1614265 334.842795, 11.1614265 334.842795, 0 373.819205, 0 373.819205, 11.1614265 412.795615, 11.1614265 412.795615, 0 451.772025, 0 451.772025, 11.1614265 490.748435, 11.1614265 490.748435, 0 529.7248450000001, 0 529.7248450000001, 11.1614265 568.7012550000001, 11.1614265 568.7012550000001, 0 607.677665, 0 607.677665, 11.1614265 646.654075, 11.1614265 646.654075, 0 685.630485, 0 685.630485, 11.1614265 724.606895, 11.1614265 724.606895, 0 763.583305, 0 763.583305, 11.1614265 802.559715, 11.1614265 802.559715, 0 841.536125, 0 841.536125, 11.1614265 892.0282925, 11.1614265 892.0282925, 0 931.3590335, 0 931.3590335, 39.685072 942.52046, 39.685072 942.52046, 79.370144 931.3590335, 79.370144 931.3590335, 119.055216 942.52046, 119.055216 942.52046, 158.740288 931.3590335, 158.740288 931.3590335, 198.42536 892.0282925, 198.42536 892.0282925, 187.2639335 841.536125, 187.2639335 841.536125, 198.42536 802.559715, 198.42536 802.559715, 187.2639335 763.583305, 187.2639335 763.583305, 198.42536 724.606895, 198.42536 724.606895, 187.2639335 685.630485, 187.2639335 685.630485, 198.42536 646.654075, 198.42536 646.654075, 187.2639335 607.677665, 187.2639335 607.677665, 198.42536 568.7012550000001, 198.42536 568.7012550000001, 187.2639335 529.7248450000001, 187.2639335 529.7248450000001, 198.42536 490.748435, 198.42536 490.748435, 187.2639335 451.772025, 187.2639335 451.772025, 198.42536 412.795615, 198.42536 412.795615, 187.2639335 373.819205, 187.2639335 373.819205, 198.42536 334.842795, 198.42536 334.842795, 187.2639335 295.866385, 187.2639335 295.866385, 198.42536 256.889975, 198.42536 256.889975, 187.2639335 217.913565, 187.2639335 217.913565, 198.42536 178.93715500000002, 198.42536 178.93715500000002, 187.2639335 139.960745, 187.2639335 139.960745, 198.42536 100.984335, 198.42536 100.984335, 187.2639335 50.4921675, 187.2639335 50.4921675, 198.42536 11.1614265, 198.42535999999998 11.1614265, 158.740288 0, 158.740288 0, 119.055216 11.1614265, 119.055216 11.1614265, 79.370144 0, 79.370144 0, 39.685072 11.1614265, 39.685072 "
       id="polygon14" />
  </g>
  <!-- Top-->
  <g
     transform="translate(22.5000185, 220.9253785) "
     id="g20">
    <polygon
       style="stroke:#000000; fill:none; stroke-width:0.90000074"
       points="11.1614265, 11.1614265 66.4370625, 11.1614265 66.4370625, 0 132.874125, 0 132.874125, 11.1614265 171.85053499999998, 11.1614265 171.85053499999998, 0 238.2875975, 0 238.2875975, 11.1614265 293.56323349999997, 11.1614265 293.56323349999997, 50.4921675 304.72466, 50.4921675 304.72466, 100.984335 293.56323349999997, 100.984335 293.56323349999997, 139.960745 304.72466, 139.960745 304.72466, 178.93715500000002 293.56323349999997, 178.93715500000002 293.56323349999997, 217.913565 304.72466, 217.913565 304.72466, 256.889975 293.56323349999997, 256.889975 293.56323349999997, 295.866385 304.72466, 295.866385 304.72466, 334.842795 293.56323349999997, 334.842795 293.56323349999997, 373.819205 304.72466, 373.819205 304.72466, 412.795615 293.56323349999997, 412.795615 293.56323349999997, 451.772025 304.72466, 451.772025 304.72466, 490.748435 293.56323349999997, 490.748435 293.56323349999997, 529.7248450000001 304.72466, 529.7248450000001 304.72466, 568.7012550000001 293.56323349999997, 568.7012550000001 293.56323349999997, 607.677665 304.72466, 607.677665 304.72466, 646.654075 293.56323349999997, 646.654075 293.56323349999997, 685.630485 304.72466, 685.630485 304.72466, 724.606895 293.56323349999997, 724.606895 293.56323349999997, 763.583305 304.72466, 763.583305 304.72466, 802.559715 293.56323349999997, 802.559715 293.56323349999997, 841.536125 304.72466, 841.536125 304.72466, 892.0282925 293.56323349999997, 892.0282925 293.56323349999997, 931.3590335 238.2875975, 931.3590335 238.2875975, 942.52046 171.85053499999998, 942.52046 171.85053499999998, 931.3590335 132.874125, 931.3590335 132.874125, 942.52046 66.4370625, 942.52046 66.4370625, 931.3590335 11.1614265, 931.3590335 11.1614265, 892.0282925 0, 892.0282925 0, 841.536125 11.1614265, 841.536125 11.1614265, 802.559715 0, 802.559715 0, 763.583305 11.1614265, 763.583305 11.1614265, 724.606895 0, 724.606895 0, 685.630485 11.1614265, 685.630485 11.1614265, 646.654075 0, 646.654075 0, 607.677665 11.1614265, 607.677665 11.1614265, 568.7012550000001 0, 568.7012550000001 0, 529.7248450000001 11.1614265, 529.7248450000001 11.1614265, 490.748435 0, 490.748435 0, 451.772025 11.1614265, 451.772025 11.1614265, 412.795615 0, 412.795615 0, 373.819205 11.1614265, 373.819205 11.1614265, 334.842795 0, 334.842795 0, 295.866385 11.1614265, 295.866385 11.1614265, 256.889975 0, 256.889975 0, 217.913565 11.1614265, 217.913565 11.1614265, 178.93715500000002 0, 178.93715500000002 0, 139.960745 11.1614265, 139.960745 11.1614265, 100.984335 0, 100.984335 0, 50.4921675 11.1614265, 50.4921675 "
       id="polygon18" />
  </g>
  <!-- Bottom-->
  <g
     transform="translate(327.2246785, 220.9253785) "
     id="g24">
    <polygon
       style="stroke:#000000; fill:none; stroke-width:0.90000074"
       points="11.1614265, 11.1614265 66.4370625, 11.1614265 66.4370625, 0 132.874125, 0 132.874125, 11.1614265 171.85053499999998, 11.1614265 171.85053499999998, 0 238.2875975, 0 238.2875975, 11.1614265 293.56323349999997, 11.1614265 293.56323349999997, 50.4921675 304.72466, 50.4921675 304.72466, 100.984335 293.56323349999997, 100.984335 293.56323349999997, 139.960745 304.72466, 139.960745 304.72466, 178.93715500000002 293.56323349999997, 178.93715500000002 293.56323349999997, 217.913565 304.72466, 217.913565 304.72466, 256.889975 293.56323349999997, 256.889975 293.56323349999997, 295.866385 304.72466, 295.866385 304.72466, 334.842795 293.56323349999997, 334.842795 293.56323349999997, 373.819205 304.72466, 373.819205 304.72466, 412.795615 293.56323349999997, 412.795615 293.56323349999997, 451.772025 304.72466, 451.772025 304.72466, 490.748435 293.56323349999997, 490.748435 293.56323349999997, 529.7248450000001 304.72466, 529.7248450000001 304.72466, 568.7012550000001 293.56323349999997, 568.7012550000001 293.56323349999997, 607.677665 304.72466, 607.677665 304.72466, 646.654075 293.56323349999997, 646.654075 293.56323349999997, 685.630485 304.72466, 685.630485 304.72466, 724.606895 293.56323349999997, 724.606895 293.56323349999997, 763.583305 304.72466, 763.583305 304.72466, 802.559715 293.56323349999997, 802.559715 293.56323349999997, 841.536125 304.72466, 841.536125 304.72466, 892.0282925 293.56323349999997, 892.0282925 293.56323349999997, 931.3590335 238.2875975, 931.3590335 238.2875975, 942.52046 171.85053499999998, 942.52046 171.85053499999998, 931.3590335 132.874125, 931.3590335 132.874125, 942.52046 66.4370625, 942.52046 66.4370625, 931.3590335 11.1614265, 931.3590335 11.1614265, 892.0282925 0, 892.0282925 0, 841.536125 11.1614265, 841.536125 11.1614265, 802.559715 0, 802.559715 0, 763.583305 11.1614265, 763.583305 11.1614265, 724.606895 0, 724.606895 0, 685.630485 11.1614265, 685.630485 11.1614265, 646.654075 0, 646.654075 0, 607.677665 11.1614265, 607.677665 11.1614265, 568.7012550000001 0, 568.7012550000001 0, 529.7248450000001 11.1614265, 529.7248450000001 11.1614265, 490.748435 0, 490.748435 0, 451.772025 11.1614265, 451.772025 11.1614265, 412.795615 0, 412.795615 0, 373.819205 11.1614265, 373.819205 11.1614265, 334.842795 0, 334.842795 0, 295.866385 11.1614265, 295.866385 11.1614265, 256.889975 0, 256.889975 0, 217.913565 11.1614265, 217.913565 11.1614265, 178.93715500000002 0, 178.93715500000002 0, 139.960745 11.1614265, 139.960745 11.1614265, 100.984335 0, 100.984335 0, 50.4921675 11.1614265, 50.4921675 "
       id="polygon22" />
  </g>
  <rect
     style="opacity:1;fill:#0000ff;fill-opacity:1;stroke:none;stroke-width:0.60019714;stroke-opacity:1"
     id="rect3724"
     width="141.73239"
     height="70.866196"
     x="344.60449"
     y="130.90273" />
  <rect
     style="opacity:1;fill:#0000ff;fill-opacity:1;stroke:none;stroke-width:0.6492185;stroke-opacity:1"
     id="rect3726"
     width="88.582748"
     height="708.66199"
     x="435.29562"
     y="266.22571" />
</svg>
